<mxfile host="app.diagrams.net" modified="2021-12-17T18:52:48.071Z" agent="5.0 (X11)" etag="PLjdOTOmWmhSDmkgCpXJ" version="16.0.0" type="github">
  <diagram id="Xny3krn2FEq6YxMjrFRC" name="Page-1">
    <mxGraphModel dx="1030" dy="584" grid="1" gridSize="10" guides="1" tooltips="1" connect="1" arrows="1" fold="1" page="1" pageScale="1" pageWidth="850" pageHeight="1100" background="#ffffff" math="0" shadow="0">
      <root>
        <mxCell id="0" />
        <mxCell id="1" parent="0" />
        <mxCell id="FtaYuqawfythoiHVLwht-1" value="Application number 19238 " style="rounded=0;whiteSpace=wrap;html=1;fontSize=26;" vertex="1" parent="1">
          <mxGeometry x="60" y="30" width="680" height="60" as="geometry" />
        </mxCell>
        <mxCell id="FtaYuqawfythoiHVLwht-3" value="Required documents:" style="text;html=1;strokeColor=none;fillColor=none;align=center;verticalAlign=middle;whiteSpace=wrap;rounded=0;fontSize=26;" vertex="1" parent="1">
          <mxGeometry x="200" y="110" width="400" height="30" as="geometry" />
        </mxCell>
        <mxCell id="FtaYuqawfythoiHVLwht-4" value="&lt;font style=&quot;font-size: 12px&quot;&gt;secondary school certificate&lt;/font&gt;" style="whiteSpace=wrap;html=1;aspect=fixed;fontSize=26;" vertex="1" parent="1">
          <mxGeometry x="200" y="160" width="80" height="80" as="geometry" />
        </mxCell>
        <mxCell id="FtaYuqawfythoiHVLwht-5" value="&lt;font style=&quot;font-size: 12px&quot;&gt;recruitment form&lt;/font&gt;" style="whiteSpace=wrap;html=1;aspect=fixed;fontSize=26;" vertex="1" parent="1">
          <mxGeometry x="40" y="160" width="80" height="80" as="geometry" />
        </mxCell>
        <mxCell id="FtaYuqawfythoiHVLwht-6" value="&lt;font style=&quot;font-size: 12px&quot;&gt;CV&lt;/font&gt;" style="whiteSpace=wrap;html=1;aspect=fixed;fontSize=26;" vertex="1" parent="1">
          <mxGeometry x="360" y="160" width="80" height="80" as="geometry" />
        </mxCell>
        <mxCell id="FtaYuqawfythoiHVLwht-7" value="&lt;span class=&quot;VIiyi&quot; lang=&quot;en&quot;&gt;&lt;span class=&quot;JLqJ4b ChMk0b&quot; style=&quot;font-size: 12px&quot;&gt;&lt;span&gt;recommendation letter&lt;br&gt;&lt;/span&gt;&lt;/span&gt;&lt;/span&gt;" style="whiteSpace=wrap;html=1;aspect=fixed;fontSize=26;" vertex="1" parent="1">
          <mxGeometry x="520" y="160" width="80" height="80" as="geometry" />
        </mxCell>
        <mxCell id="FtaYuqawfythoiHVLwht-8" value="&lt;font style=&quot;font-size: 12px&quot;&gt;ect.&lt;/font&gt;" style="whiteSpace=wrap;html=1;aspect=fixed;fontSize=26;" vertex="1" parent="1">
          <mxGeometry x="680" y="160" width="80" height="80" as="geometry" />
        </mxCell>
        <mxCell id="FtaYuqawfythoiHVLwht-9" value="ok" style="ellipse;whiteSpace=wrap;html=1;aspect=fixed;fontSize=12;" vertex="1" parent="1">
          <mxGeometry x="130" y="160" width="30" height="30" as="geometry" />
        </mxCell>
        <mxCell id="FtaYuqawfythoiHVLwht-10" value="ok" style="ellipse;whiteSpace=wrap;html=1;aspect=fixed;fontSize=12;" vertex="1" parent="1">
          <mxGeometry x="290" y="160" width="30" height="30" as="geometry" />
        </mxCell>
        <mxCell id="FtaYuqawfythoiHVLwht-11" value="x" style="ellipse;whiteSpace=wrap;html=1;aspect=fixed;fontSize=12;" vertex="1" parent="1">
          <mxGeometry x="130" y="210" width="30" height="30" as="geometry" />
        </mxCell>
        <mxCell id="FtaYuqawfythoiHVLwht-12" value="x" style="ellipse;whiteSpace=wrap;html=1;aspect=fixed;fontSize=12;" vertex="1" parent="1">
          <mxGeometry x="770" y="210" width="30" height="30" as="geometry" />
        </mxCell>
        <mxCell id="FtaYuqawfythoiHVLwht-13" value="x" style="ellipse;whiteSpace=wrap;html=1;aspect=fixed;fontSize=12;" vertex="1" parent="1">
          <mxGeometry x="610" y="210" width="30" height="30" as="geometry" />
        </mxCell>
        <mxCell id="FtaYuqawfythoiHVLwht-14" value="x" style="ellipse;whiteSpace=wrap;html=1;aspect=fixed;fontSize=12;" vertex="1" parent="1">
          <mxGeometry x="450" y="210" width="30" height="30" as="geometry" />
        </mxCell>
        <mxCell id="FtaYuqawfythoiHVLwht-15" value="x" style="ellipse;whiteSpace=wrap;html=1;aspect=fixed;fontSize=12;" vertex="1" parent="1">
          <mxGeometry x="290" y="210" width="30" height="30" as="geometry" />
        </mxCell>
        <mxCell id="FtaYuqawfythoiHVLwht-16" value="ok" style="ellipse;whiteSpace=wrap;html=1;aspect=fixed;fontSize=12;" vertex="1" parent="1">
          <mxGeometry x="770" y="160" width="30" height="30" as="geometry" />
        </mxCell>
        <mxCell id="FtaYuqawfythoiHVLwht-17" value="ok" style="ellipse;whiteSpace=wrap;html=1;aspect=fixed;fontSize=12;" vertex="1" parent="1">
          <mxGeometry x="610" y="160" width="30" height="30" as="geometry" />
        </mxCell>
        <mxCell id="FtaYuqawfythoiHVLwht-18" value="ok" style="ellipse;whiteSpace=wrap;html=1;aspect=fixed;fontSize=12;" vertex="1" parent="1">
          <mxGeometry x="450" y="160" width="30" height="30" as="geometry" />
        </mxCell>
        <mxCell id="FtaYuqawfythoiHVLwht-20" value="next" style="triangle;whiteSpace=wrap;html=1;fontSize=12;" vertex="1" parent="1">
          <mxGeometry x="400" y="310" width="60" height="80" as="geometry" />
        </mxCell>
        <mxCell id="FtaYuqawfythoiHVLwht-21" value="previous" style="triangle;whiteSpace=wrap;html=1;fontSize=12;direction=west;" vertex="1" parent="1">
          <mxGeometry x="330" y="310" width="60" height="80" as="geometry" />
        </mxCell>
      </root>
    </mxGraphModel>
  </diagram>
</mxfile>
